<svg width="76" height="60" viewBox="0 0 76 60" fill="none" xmlns="http://www.w3.org/2000/svg">
<g clip-path="url(#clip0_130_222)">
<mask id="path-1-outside-1_130_222" maskUnits="userSpaceOnUse" x="2.59644" y="-1.01585" width="70" height="62" fill="black">
<rect fill="white" x="2.59644" y="-1.01585" width="70" height="62"/>
<path d="M4.95895 45.1744C5.32335 27.2727 19.9783 12.8118 37.9604 12.8118C55.9425 12.8118 70.5975 27.2727 70.9619 45.1744H4.95895ZM31.9083 46.5222H44.0284V51.9133H31.9083V46.5222ZM70.9777 58.6522H45.375V53.2611H70.9777V58.6522ZM31.9083 53.2611H44.0284V58.6522H31.9083V53.2611ZM4.95895 53.2611H30.5458V58.6522H4.94311V53.2611H4.95895ZM37.9604 1.34778C41.0815 1.34778 43.6481 3.71036 43.9808 6.7389H31.9241C32.2568 3.71036 34.8393 1.34778 37.9446 1.34778M38.6258 11.4799V8.08668H45.3592V7.40487C45.3592 3.31396 42.0321 -0.0158539 37.9446 -0.0158539C33.857 -0.0158539 30.5299 3.31396 30.5299 7.40487V8.08668H37.2633V11.4799C18.6475 11.8446 3.59644 27.1142 3.59644 45.8404V46.5063H30.5458V51.8975H3.59644V59.9841H72.3085V51.8975H45.375V46.5063H72.3244V45.8404C72.3244 27.1142 57.2733 11.8446 38.6417 11.4799"/>
</mask>
<path d="M4.95895 45.1744C5.32335 27.2727 19.9783 12.8118 37.9604 12.8118C55.9425 12.8118 70.5975 27.2727 70.9619 45.1744H4.95895ZM31.9083 46.5222H44.0284V51.9133H31.9083V46.5222ZM70.9777 58.6522H45.375V53.2611H70.9777V58.6522ZM31.9083 53.2611H44.0284V58.6522H31.9083V53.2611ZM4.95895 53.2611H30.5458V58.6522H4.94311V53.2611H4.95895ZM37.9604 1.34778C41.0815 1.34778 43.6481 3.71036 43.9808 6.7389H31.9241C32.2568 3.71036 34.8393 1.34778 37.9446 1.34778M38.6258 11.4799V8.08668H45.3592V7.40487C45.3592 3.31396 42.0321 -0.0158539 37.9446 -0.0158539C33.857 -0.0158539 30.5299 3.31396 30.5299 7.40487V8.08668H37.2633V11.4799C18.6475 11.8446 3.59644 27.1142 3.59644 45.8404V46.5063H30.5458V51.8975H3.59644V59.9841H72.3085V51.8975H45.375V46.5063H72.3244V45.8404C72.3244 27.1142 57.2733 11.8446 38.6417 11.4799" fill="white"/>
<path d="M4.95895 45.1744L4.759 45.1703L4.75484 45.3744H4.95895V45.1744ZM70.9619 45.1744V45.3744H71.166L71.1618 45.1703L70.9619 45.1744ZM44.0284 46.5222H44.2284V46.3222H44.0284V46.5222ZM44.0284 51.9133V52.1133H44.2284V51.9133H44.0284ZM31.9083 51.9133H31.7083V52.1133H31.9083V51.9133ZM70.9777 58.6522V58.8522H71.1777V58.6522H70.9777ZM45.375 58.6522H45.175V58.8522H45.375V58.6522ZM45.375 53.2611V53.0611H45.175V53.2611H45.375ZM70.9777 53.2611H71.1777V53.0611H70.9777V53.2611ZM44.0284 53.2611H44.2284V53.0611H44.0284V53.2611ZM44.0284 58.6522V58.8522H44.2284V58.6522H44.0284ZM31.9083 58.6522H31.7083V58.8522H31.9083V58.6522ZM30.5458 53.2611H30.7458V53.0611H30.5458V53.2611ZM30.5458 58.6522V58.8522H30.7458V58.6522H30.5458ZM4.94311 58.6522H4.74311V58.8522H4.94311V58.6522ZM4.94311 53.2611V53.0611H4.74311V53.2611H4.94311ZM43.9808 6.7389V6.9389H44.204L44.1796 6.71706L43.9808 6.7389ZM31.9241 6.7389L31.7253 6.71706L31.701 6.9389H31.9241V6.7389ZM38.6258 8.08668V7.88668H38.4258V8.08668H38.6258ZM45.3592 8.08668V8.28668H45.5592V8.08668H45.3592ZM30.5299 8.08668H30.3299V8.28668H30.5299V8.08668ZM37.2633 8.08668H37.4633V7.88668H37.2633V8.08668ZM37.2633 11.4799L37.2672 11.6799L37.4633 11.676V11.4799H37.2633ZM3.59644 46.5063H3.39644V46.7063H3.59644V46.5063ZM30.5458 46.5063H30.7458V46.3063H30.5458V46.5063ZM30.5458 51.8975V52.0975H30.7458V51.8975H30.5458ZM3.59644 51.8975V51.6975H3.39644V51.8975H3.59644ZM3.59644 59.9841H3.39644V60.1841H3.59644V59.9841ZM72.3085 59.9841V60.1841H72.5085V59.9841H72.3085ZM72.3085 51.8975H72.5085V51.6975H72.3085V51.8975ZM45.375 51.8975H45.175V52.0975H45.375V51.8975ZM45.375 46.5063V46.3063H45.175V46.5063H45.375ZM72.3244 46.5063V46.7063H72.5244V46.5063H72.3244ZM5.15891 45.1785C5.5211 27.3851 20.0877 13.0118 37.9604 13.0118V12.6118C19.869 12.6118 5.1256 27.1603 4.759 45.1703L5.15891 45.1785ZM37.9604 13.0118C55.8331 13.0118 70.3997 27.3851 70.7619 45.1785L71.1618 45.1703C70.7952 27.1603 56.0519 12.6118 37.9604 12.6118V13.0118ZM70.9619 44.9744H4.95895V45.3744H70.9619V44.9744ZM31.9083 46.7222H44.0284V46.3222H31.9083V46.7222ZM43.8284 46.5222V51.9133H44.2284V46.5222H43.8284ZM44.0284 51.7133H31.9083V52.1133H44.0284V51.7133ZM32.1083 51.9133V46.5222H31.7083V51.9133H32.1083ZM70.9777 58.4522H45.375V58.8522H70.9777V58.4522ZM45.575 58.6522V53.2611H45.175V58.6522H45.575ZM45.375 53.4611H70.9777V53.0611H45.375V53.4611ZM70.7777 53.2611V58.6522H71.1777V53.2611H70.7777ZM31.9083 53.4611H44.0284V53.0611H31.9083V53.4611ZM43.8284 53.2611V58.6522H44.2284V53.2611H43.8284ZM44.0284 58.4522H31.9083V58.8522H44.0284V58.4522ZM32.1083 58.6522V53.2611H31.7083V58.6522H32.1083ZM4.95895 53.4611H30.5458V53.0611H4.95895V53.4611ZM30.3458 53.2611V58.6522H30.7458V53.2611H30.3458ZM30.5458 58.4522H4.94311V58.8522H30.5458V58.4522ZM5.14311 58.6522V53.2611H4.74311V58.6522H5.14311ZM4.94311 53.4611H4.95895V53.0611H4.94311V53.4611ZM37.9604 1.54778C40.9782 1.54778 43.4603 3.83226 43.782 6.76074L44.1796 6.71706C43.8359 3.58847 41.1849 1.14778 37.9604 1.14778V1.54778ZM43.9808 6.5389H31.9241V6.9389H43.9808V6.5389ZM32.1229 6.76074C32.4446 3.83258 34.9423 1.54778 37.9446 1.54778V1.14778C34.7363 1.14778 32.0691 3.58814 31.7253 6.71706L32.1229 6.76074ZM38.8258 11.4799V8.08668H38.4258V11.4799H38.8258ZM38.6258 8.28668H45.3592V7.88668H38.6258V8.28668ZM45.5592 8.08668V7.40487H45.1592V8.08668H45.5592ZM45.5592 7.40487C45.5592 3.20365 42.1427 -0.215854 37.9446 -0.215854V0.184146C41.9215 0.184146 45.1592 3.42426 45.1592 7.40487H45.5592ZM37.9446 -0.215854C33.7464 -0.215854 30.3299 3.20365 30.3299 7.40487H30.7299C30.7299 3.42426 33.9676 0.184146 37.9446 0.184146V-0.215854ZM30.3299 7.40487V8.08668H30.7299V7.40487H30.3299ZM30.5299 8.28668H37.2633V7.88668H30.5299V8.28668ZM37.0633 8.08668V11.4799H37.4633V8.08668H37.0633ZM37.2594 11.28C18.5349 11.6468 3.39644 27.005 3.39644 45.8404H3.79644C3.79644 27.2233 18.7601 12.0424 37.2672 11.6799L37.2594 11.28ZM3.39644 45.8404V46.5063H3.79644V45.8404H3.39644ZM3.59644 46.7063H30.5458V46.3063H3.59644V46.7063ZM30.3458 46.5063V51.8975H30.7458V46.5063H30.3458ZM30.5458 51.6975H3.59644V52.0975H30.5458V51.6975ZM3.39644 51.8975V59.9841H3.79644V51.8975H3.39644ZM3.59644 60.1841H72.3085V59.7841H3.59644V60.1841ZM72.5085 59.9841V51.8975H72.1085V59.9841H72.5085ZM72.3085 51.6975H45.375V52.0975H72.3085V51.6975ZM45.575 51.8975V46.5063H45.175V51.8975H45.575ZM45.375 46.7063H72.3244V46.3063H45.375V46.7063ZM72.5244 46.5063V45.8404H72.1244V46.5063H72.5244ZM72.5244 45.8404C72.5244 27.005 57.3859 11.6468 38.6456 11.28L38.6378 11.6799C57.1607 12.0424 72.1244 27.2233 72.1244 45.8404H72.5244Z" fill="white" mask="url(#path-1-outside-1_130_222)"/>
<path d="M21.5173 9.65542L21.6116 9.62152L21.5774 9.52726L21.118 8.25876L21.084 8.16501L20.9902 8.1987C11.378 11.6492 3.68834 19.0908 -0.0929222 28.5994L-0.130032 28.6927L-0.036555 28.7294L1.21506 29.221L1.30772 29.2574L1.34453 29.1649C4.96203 20.0742 12.3235 12.9597 21.5173 9.65542Z" fill="white" stroke="white" stroke-width="0.2"/>
<mask id="path-4-outside-2_130_222" maskUnits="userSpaceOnUse" x="53.5166" y="7.29282" width="23" height="23" fill="black">
<rect fill="white" x="53.5166" y="7.29282" width="23" height="23"/>
<path d="M54.9761 8.29282L54.5166 9.56132C63.7374 12.8753 71.1203 20.0106 74.7484 29.1438L76 28.6364C72.2293 19.1543 64.5612 11.7336 54.9761 8.29282Z"/>
</mask>
<path d="M54.9761 8.29282L54.5166 9.56132C63.7374 12.8753 71.1203 20.0106 74.7484 29.1438L76 28.6364C72.2293 19.1543 64.5612 11.7336 54.9761 8.29282Z" fill="white"/>
<path d="M54.5166 9.56132L54.3286 9.4932L54.2603 9.68172L54.449 9.74953L54.5166 9.56132ZM74.7484 29.1438L74.5625 29.2176L74.6369 29.4048L74.8236 29.3291L74.7484 29.1438ZM76 28.6364L76.0752 28.8217L76.2593 28.7471L76.1859 28.5625L76 28.6364ZM54.788 8.22471L54.3286 9.4932L54.7046 9.62943L55.1641 8.36093L54.788 8.22471ZM54.449 9.74953C63.6157 13.0441 70.9556 20.1377 74.5625 29.2176L74.9343 29.0699C71.285 19.8834 63.859 12.7065 54.5842 9.3731L54.449 9.74953ZM74.8236 29.3291L76.0752 28.8217L75.9249 28.451L74.6733 28.9584L74.8236 29.3291ZM76.1859 28.5625C72.394 19.0273 64.6829 11.5648 55.0436 8.10458L54.9085 8.48106C64.4395 11.9024 72.0646 19.2814 75.8142 28.7103L76.1859 28.5625Z" fill="white" mask="url(#path-4-outside-2_130_222)"/>
</g>
<defs>
<clipPath id="clip0_130_222">
<rect width="76" height="60" fill="white"/>
</clipPath>
</defs>
</svg>
