<svg width="28" height="28" viewBox="0 0 28 28" fill="none" xmlns="http://www.w3.org/2000/svg">
<path d="M21.4066 4.99805C20.5029 4.99805 19.7642 5.73675 19.7642 6.64048C19.7642 7.54422 20.5029 8.28292 21.4066 8.28292C22.3103 8.28292 23.049 7.54422 23.049 6.64048C23.049 5.73675 22.3103 4.99805 21.4066 4.99805Z" fill="white"/>
<path d="M14.1139 7.10413C10.3103 7.10413 7.22192 10.2004 7.22192 13.9961C7.22192 17.7917 10.3182 20.888 14.1139 20.888C17.9095 20.888 21.0058 17.7917 21.0058 13.9961C21.0058 10.2004 17.9095 7.10413 14.1139 7.10413ZM14.1139 18.4126C11.6777 18.4126 9.69737 16.4322 9.69737 13.9961C9.69737 11.5599 11.6777 9.57957 14.1139 9.57957C16.55 9.57957 18.5304 11.5599 18.5304 13.9961C18.5304 16.4322 16.55 18.4126 14.1139 18.4126Z" fill="white"/>
<path d="M19.5835 28H8.40864C3.7721 28 0 24.2279 0 19.5914V8.40864C0 3.7721 3.7721 0 8.40864 0H19.5835C24.22 0 27.9921 3.7721 27.9921 8.40864V19.5835C27.9921 24.22 24.22 27.9921 19.5835 27.9921V28ZM8.40864 2.63261C5.22593 2.63261 2.63261 5.22593 2.63261 8.40864V19.5835C2.63261 22.7662 5.22593 25.3595 8.40864 25.3595H19.5835C22.7662 25.3595 25.3595 22.7662 25.3595 19.5835V8.40864C25.3595 5.22593 22.7662 2.63261 19.5835 2.63261H8.40864Z" fill="white"/>
</svg>
