<svg width="28" height="28" viewBox="0 0 28 28" fill="none" xmlns="http://www.w3.org/2000/svg">
<path d="M27.4609 20.9408L19.6227 13.1052L14.5268 18.1995L9.78746 13.4854L14.8993 8.37524L7.06909 0.547525C6.71245 0.190999 6.20523 -0.0149934 5.70594 0.000852147C5.20665 0.00877494 4.72321 0.22269 4.38242 0.587139C-1.61702 7.03629 -1.43474 16.9715 4.79453 23.2067C7.98842 26.3996 12.1492 28 16.3179 28C20.4866 28 24.267 26.5422 27.4133 23.6187C27.7779 23.278 27.9918 22.7947 27.9998 22.2956C28.0077 21.7885 27.8096 21.2973 27.4529 20.9408H27.4609ZM6.68075 21.329C1.66405 16.306 1.33118 8.42278 5.78519 3.02736L11.1348 8.37524L7.90917 11.5998C7.40988 12.099 7.13249 12.7645 7.13249 13.4696C7.13249 14.1747 7.40988 14.8402 7.90917 15.3394L12.6643 20.0931C13.1636 20.5922 13.8294 20.8695 14.5347 20.8695C15.2401 20.8695 15.9058 20.5922 16.4051 20.0931L19.6307 16.8685L24.9802 22.2164C19.5831 26.669 11.6975 26.3362 6.68075 21.3211V21.329Z" fill="white"/>
</svg>
