<svg width="28" height="28" viewBox="0 0 28 28" fill="none" xmlns="http://www.w3.org/2000/svg">
<path d="M0 28L2.009 20.5108C0.874508 18.4597 0.275746 16.1572 0.275746 13.831C0.275746 6.20039 6.49184 0 14.1339 0C21.776 0 28 6.20039 28 13.831C28 21.4617 21.7839 27.6621 14.1339 27.6621C11.8413 27.6621 9.57231 27.0805 7.54755 25.9882L0 28ZM7.92572 23.1749L8.39842 23.4578C10.1396 24.4951 12.1249 25.0452 14.1339 25.0452C20.3343 25.0452 25.3765 20.0157 25.3765 13.831C25.3765 7.64637 20.3343 2.6169 14.1339 2.6169C7.9336 2.6169 2.89139 7.64637 2.89139 13.831C2.89139 15.8743 3.45864 17.886 4.53799 19.6464L4.82949 20.1257L3.70287 24.3065L7.91784 23.1827L7.92572 23.1749Z" fill="white"/>
<path fill-rule="evenodd" clip-rule="evenodd" d="M19.2943 15.7485C18.727 15.4106 17.9786 15.0255 17.3089 15.3006C16.7968 15.5128 16.4659 16.3143 16.1271 16.7308C15.9538 16.943 15.749 16.9745 15.489 16.8723C13.5509 16.1022 12.0697 14.8134 10.9983 13.0373C10.817 12.7623 10.8486 12.5422 11.0692 12.2908C11.3922 11.9135 11.794 11.4813 11.8806 10.9705C11.9673 10.4597 11.7309 9.86247 11.5182 9.40667C11.2504 8.82514 10.9431 7.99999 10.3601 7.66993C9.82436 7.37131 9.1153 7.53634 8.6426 7.92141C7.81536 8.58938 7.42144 9.64243 7.42932 10.6798C7.42932 10.9784 7.46871 11.2691 7.53961 11.5521C7.70506 12.2357 8.02808 12.8802 8.38261 13.4853C8.65047 13.9411 8.94198 14.389 9.26499 14.8212C10.2971 16.2279 11.5891 17.446 13.0782 18.3576C13.8266 18.8134 14.6223 19.2141 15.4575 19.4892C16.3871 19.7957 17.2222 20.1179 18.2307 19.9293C19.2864 19.7328 20.3263 19.0805 20.7439 18.0668C20.8699 17.7682 20.933 17.4302 20.8621 17.1159C20.7203 16.4636 19.83 16.0707 19.3021 15.7564L19.2943 15.7485Z" fill="white"/>
</svg>
