<svg width="99" height="67" viewBox="0 0 99 67" fill="none" xmlns="http://www.w3.org/2000/svg">
<g clip-path="url(#clip0_116_345)">
<path d="M97.7087 21.3229C98.4787 21.2586 99.0561 20.5832 98.9919 19.8033C98.5268 14.0706 95.8481 8.86044 91.4611 5.12973C87.0741 1.39902 81.5082 -0.393973 75.7978 0.0723656C75.0279 0.136688 74.4505 0.812075 74.5146 1.59199C74.5788 2.3719 75.2685 2.94276 76.0304 2.87844C81.0109 2.46838 85.839 4.0282 89.6566 7.27649C93.4741 10.5248 95.7999 15.0515 96.201 20.0365C96.2651 20.8084 96.9468 21.3873 97.7168 21.3229H97.7087Z" fill="#0664A7"/>
<path d="M91.9342 21.7973C92.7041 21.733 93.2816 21.0576 93.2174 20.2777C92.5036 11.5941 84.8685 5.10561 76.2148 5.81316C75.4449 5.87748 74.8675 6.55286 74.9316 7.33278C74.9958 8.10465 75.6855 8.68355 76.4474 8.61923C83.5693 8.04032 89.841 13.363 90.4264 20.5028C90.4906 21.2667 91.1563 21.8536 91.9422 21.7893L91.9342 21.7973Z" fill="#0664A7"/>
<path d="M83.6735 13.9258C81.6204 12.2052 79.0219 11.3851 76.3592 11.6183C75.5893 11.6906 75.0199 12.3741 75.084 13.1459C75.1562 13.9178 75.8299 14.4967 76.6078 14.4243C78.5246 14.2555 80.3933 14.8424 81.877 16.0806C83.3527 17.3189 84.267 19.0636 84.4355 20.9852C84.5076 21.7652 85.1974 22.336 85.9593 22.2637C86.7292 22.1913 87.2986 21.5079 87.2345 20.736C87.0019 18.0666 85.7347 15.6465 83.6816 13.9258H83.6735Z" fill="#0664A7"/>
<path d="M23.2024 0.0723732C17.484 -0.393965 11.9181 1.39903 7.5311 5.12974C3.14411 8.86045 0.473416 14.0706 0.00023105 19.8033C-0.0639297 20.5752 0.513517 21.2586 1.28345 21.3229C2.05337 21.3873 2.73508 20.8084 2.79924 20.0365C3.20827 15.0515 5.53409 10.5248 9.34364 7.2765C13.1532 4.03625 17.9893 2.46839 22.9698 2.87845C23.7317 2.94277 24.4214 2.36386 24.4856 1.59199C24.5497 0.820123 23.9723 0.136696 23.2024 0.0723732Z" fill="#0664A7"/>
<path d="M22.785 5.81315C14.1394 5.1056 6.49625 11.5861 5.78246 20.2777C5.7183 21.0496 6.29574 21.733 7.06567 21.7973C7.85164 21.8616 8.51731 21.2666 8.58147 20.5109C9.16694 13.3711 15.4226 8.04032 22.5605 8.62726C23.3224 8.69159 24.0121 8.11268 24.0763 7.34081C24.1404 6.56894 23.563 5.88551 22.7931 5.82119L22.785 5.81315Z" fill="#0664A7"/>
<path d="M15.3263 13.9258C13.2732 15.6465 12.006 18.0666 11.7734 20.736C11.7012 21.5079 12.2787 22.1913 13.0486 22.2636C13.8105 22.336 14.5003 21.7732 14.5724 20.9852C14.7409 19.0636 15.6552 17.3269 17.1309 16.0806C18.6146 14.8424 20.4832 14.2474 22.4001 14.4243C23.17 14.4967 23.8517 13.9178 23.9239 13.1459C23.996 12.3741 23.4266 11.6906 22.6487 11.6183C19.978 11.3851 17.3875 12.1972 15.3344 13.9258H15.3263Z" fill="#0664A7"/>
<path d="M43.453 12.2937C25.6243 12.2937 11.0999 26.7099 10.8513 44.5273L7.86782 48.7887C6.48034 50.7585 7.91594 53.4681 10.3621 53.4681H43.6775V56.4913H12.5756C9.68036 56.4913 7.33047 58.8471 7.33047 61.7497C7.33047 64.6522 9.68036 67.008 12.5756 67.008H86.3765C89.2717 67.008 91.6216 64.6522 91.6216 61.7497C91.6216 58.8471 89.2717 56.4913 86.3765 56.4913H55.2666V53.4681H88.582C91.0281 53.4681 92.4637 50.7666 91.0762 48.7887L88.0928 44.5273C87.8442 26.7099 73.3198 12.2937 55.4911 12.2937H53.7508V8.75591H57.9533C59.7418 8.75591 61.1934 7.30061 61.1934 5.50762V3.25633C61.2014 1.46334 59.7418 0 57.9533 0H40.9908C39.2023 0 37.7507 1.4553 37.7507 3.24829V5.49958C37.7507 7.29257 39.2023 8.74787 40.9908 8.74787H45.1933V12.2856H43.453V12.2937ZM88.8146 61.7336C88.8146 63.0844 87.7239 64.1778 86.3765 64.1778H12.5756C11.2363 64.1778 10.1375 63.0844 10.1375 61.7336C10.1375 60.3828 11.2282 59.2893 12.5756 59.2893H86.3765C87.7158 59.2893 88.8146 60.3828 88.8146 61.7336ZM52.4595 56.4752H46.4846V53.4521H52.4595V56.4752ZM88.582 50.6379H10.3621C10.1776 50.6379 10.0974 50.4932 10.1616 50.3967L12.9686 46.3927H85.9755L88.7825 50.3967C88.8547 50.4932 88.7665 50.6379 88.582 50.6379ZM85.2617 43.5705H13.6824C14.4202 27.7471 27.493 15.0997 43.453 15.0997H55.4911C71.4511 15.0997 84.5238 27.7471 85.2617 43.5705ZM40.5577 5.50762V3.25633C40.5577 3.01512 40.7502 2.82215 40.9908 2.82215H57.9533C58.1939 2.82215 58.3864 3.01512 58.3864 3.25633V5.50762C58.3864 5.74883 58.1939 5.9418 57.9533 5.9418H40.9908C40.7502 5.9418 40.5577 5.74883 40.5577 5.50762ZM48.0003 8.75591H50.9517V12.2937H48.0003V8.75591Z" fill="#0664A7"/>
</g>
<defs>
<clipPath id="clip0_116_345">
<rect width="99" height="67" fill="white"/>
</clipPath>
</defs>
</svg>
