<svg width="79" height="76" viewBox="0 0 79 76" fill="none" xmlns="http://www.w3.org/2000/svg">
<g clip-path="url(#clip0_116_358)">
<path d="M72.9182 69.7776H6.08195C5.37476 69.7776 4.79614 69.2015 4.79614 68.4973V33.8389C4.79614 33.1348 5.37476 32.5586 6.08195 32.5586H72.9182C73.6254 32.5586 74.204 33.1348 74.204 33.8389V68.4973C74.204 69.2015 73.6254 69.7776 72.9182 69.7776ZM7.38061 67.217H71.6324V35.1193H7.36776V67.217H7.38061Z" fill="#0664A7"/>
<path d="M75.6826 35.1193H3.31738C1.49154 35.1193 0 33.6341 0 31.816V30.5741C0 28.7561 1.49154 27.2709 3.31738 27.2709H75.6826C77.5085 27.2709 79 28.7561 79 30.5741V31.816C79 33.6341 77.5085 35.1193 75.6826 35.1193ZM3.31738 29.8315C2.90592 29.8315 2.57161 30.1644 2.57161 30.5741V31.816C2.57161 32.2257 2.90592 32.5586 3.31738 32.5586H75.6826C76.0941 32.5586 76.4284 32.2257 76.4284 31.816V30.5741C76.4284 30.1644 76.0941 29.8315 75.6826 29.8315H3.31738Z" fill="#0664A7"/>
<path d="M39.4999 29.8315H13.2694C12.5623 29.8315 11.9836 29.2554 11.9836 28.5512V22.8538C11.9836 18.0398 15.9182 14.122 20.7528 14.122H32.0165C36.8512 14.122 40.7857 18.0398 40.7857 22.8538V28.5512C40.7857 29.2554 40.2071 29.8315 39.4999 29.8315ZM14.5553 27.2709H38.2141V22.8538C38.2141 19.4481 35.4368 16.6826 32.0165 16.6826H20.7528C17.3326 16.6826 14.5553 19.4481 14.5553 22.8538V27.2709Z" fill="#0664A7"/>
<path d="M26.3848 16.6826C21.7687 16.6826 18.0142 12.9441 18.0142 8.34771C18.0142 3.75135 21.7687 0 26.3848 0C31.0008 0 34.7554 3.73854 34.7554 8.33491C34.7554 12.9313 31.0008 16.6698 26.3848 16.6698V16.6826ZM26.3848 2.56065C23.1831 2.56065 20.5858 5.1469 20.5858 8.33491C20.5858 11.5229 23.1831 14.1092 26.3848 14.1092C29.5864 14.1092 32.1838 11.5229 32.1838 8.33491C32.1838 5.1469 29.5864 2.56065 26.3848 2.56065Z" fill="#0664A7"/>
<path d="M65.1647 29.8315C64.4575 29.8315 63.8789 29.2554 63.8789 28.5512V26.093C63.8789 24.9663 62.966 24.0573 61.8345 24.0573H58.3114C57.1799 24.0573 56.2669 24.9663 56.2669 26.093V28.5512C56.2669 29.2554 55.6883 29.8315 54.9811 29.8315C54.2739 29.8315 53.6953 29.2554 53.6953 28.5512V26.093C53.6953 23.5579 55.7655 21.4966 58.3114 21.4966H61.8345C64.3804 21.4966 66.4505 23.5579 66.4505 26.093V28.5512C66.4505 29.2554 65.8719 29.8315 65.1647 29.8315Z" fill="#0664A7"/>
<path d="M61.6031 19.781H58.5429C57.8357 19.781 57.2571 19.2049 57.2571 18.5007C57.2571 17.7965 57.8357 17.2204 58.5429 17.2204H61.6031C62.3103 17.2204 62.8889 17.7965 62.8889 18.5007C62.8889 19.2049 62.3103 19.781 61.6031 19.781Z" fill="#0664A7"/>
<path d="M60.073 76H6.08195C5.37476 76 4.79614 75.4239 4.79614 74.7197C4.79614 74.0155 5.37476 73.4394 6.08195 73.4394H60.073C60.7802 73.4394 61.3588 74.0155 61.3588 74.7197C61.3588 75.4239 60.7802 76 60.073 76Z" fill="#0664A7"/>
<path d="M72.9182 76H65.1777C64.4705 76 63.8918 75.4239 63.8918 74.7197C63.8918 74.0155 64.4705 73.4394 65.1777 73.4394H72.9182C73.6254 73.4394 74.204 74.0155 74.204 74.7197C74.204 75.4239 73.6254 76 72.9182 76Z" fill="#0664A7"/>
<path d="M24.5717 69.7776C23.8645 69.7776 23.2859 69.2015 23.2859 68.4973V33.8389C23.2859 33.1348 23.8645 32.5586 24.5717 32.5586C25.2789 32.5586 25.8575 33.1348 25.8575 33.8389V68.4973C25.8575 69.2015 25.2789 69.7776 24.5717 69.7776Z" fill="#0664A7"/>
<path d="M52.9111 69.7776C52.2039 69.7776 51.6252 69.2015 51.6252 68.4973V33.8389C51.6252 33.1348 52.2039 32.5586 52.9111 32.5586C53.6182 32.5586 54.1969 33.1348 54.1969 33.8389V68.4973C54.1969 69.2015 53.6182 69.7776 52.9111 69.7776Z" fill="#0664A7"/>
</g>
<defs>
<clipPath id="clip0_116_358">
<rect width="79" height="76" fill="white"/>
</clipPath>
</defs>
</svg>
